<?xml version="1.0" encoding="UTF-8" standalone="no"?>
<svg
   version="1.0"
   width="767.000000pt"
   height="698.000000pt"
   viewBox="0 0 767.000000 698.000000"
   preserveAspectRatio="xMidYMid meet"
   id="svg795"
   sodipodi:docname="polkachange.svg"
   inkscape:version="1.1.2 (0a00cf5, 2022-02-04)"
   xmlns:inkscape="http://www.inkscape.org/namespaces/inkscape"
   xmlns:sodipodi="http://sodipodi.sourceforge.net/DTD/sodipodi-0.dtd"
   xmlns="http://www.w3.org/2000/svg"
   xmlns:svg="http://www.w3.org/2000/svg">
  <defs
     id="defs799" />
  <sodipodi:namedview
     id="namedview797"
     pagecolor="#505050"
     bordercolor="#eeeeee"
     borderopacity="1"
     inkscape:pageshadow="0"
     inkscape:pageopacity="0"
     inkscape:pagecheckerboard="0"
     inkscape:document-units="pt"
     showgrid="false"
     showguides="false"
     inkscape:zoom="6.3669597"
     inkscape:cx="628.63599"
     inkscape:cy="833.75744"
     inkscape:window-width="1852"
     inkscape:window-height="1016"
     inkscape:window-x="0"
     inkscape:window-y="0"
     inkscape:window-maximized="1"
     inkscape:current-layer="svg795" />
  <g
     transform="translate(0.000000,698.000000) scale(0.100000,-0.100000)"
     fill="#000000"
     stroke="none"
     id="g793">
    <path
       d="M3935 6670 l-16 -30 51 0 c53 0 55 4 22 43 -22 25 -39 21 -57 -13z"
       id="path747" />
    <path
       d="M4882 6448 c-18 -18 -16 -108 2 -108 20 0 103 36 110 48 8 13 -60 72 -82 72 -10 0 -23 -5 -30 -12z"
       id="path749" />
    <path
       d="M3012 6423 c-7 -3 -22 -23 -33 -45 -23 -45 -18 -58 32 -78 27 -11 34 -10 76 16 25 16 48 34 50 41 5 14 -73 73 -96 72 -9 0 -22 -3 -29 -6z"
       id="path751" />
    <path
       d="M2170 6130 c0 -22 2 -40 4 -40 3 0 15 14 27 31 18 26 19 33 8 40 -28 18 -39 10 -39 -31z"
       id="path753" />
    <path
       d="M5823 6032 c-13 -8 -6 -51 15 -88 9 -16 11 -15 21 5 14 25 4 91 -13 91 -6 0 -17 -4 -23 -8z"
       id="path755" />
    <path
       d="M1499 5457 c-15 -12 -30 -35 -33 -51 -7 -28 -6 -29 26 -22 45 9 52 19 42 60 l-9 36 -26 -23z"
       id="path757" />
    <path
       d="M4477 5443 c-4 -3 -7 -22 -7 -41 l0 -35 42 7 c23 4 44 8 45 10 2 1 -2 17 -8 34 -9 25 -17 32 -38 32 -15 0 -31 -3 -34 -7z"
       id="path759" />
    <path
       d="M6240 5220 c0 -6 18 -30 40 -53 l39 -42 1 42 c0 46 -1 48 -47 58 -22 4 -33 3 -33 -5z"
       id="path761" />
    <path
       d="M2306 4859 c-33 -26 -34 -68 -2 -98 31 -29 73 -25 99 10 17 23 18 31 8 62 -18 52 -59 62 -105 26z"
       id="path763" />
    <path
       d="M938 4649 c-13 -7 -18 -22 -18 -49 0 -52 16 -51 30 1 14 49 10 61 -12 48z"
       id="path765" />
    <path
       d="M998 3739 c-13 -7 -18 -23 -18 -54 0 -45 0 -45 35 -45 33 0 35 2 35 33 0 70 -15 88 -52 66z"
       id="path767" />
    <path
       d="M3794 3736 c-46 -20 -64 -52 -64 -113 0 -69 13 -99 52 -123 62 -38 141 -18 178 43 14 23 20 50 20 93 l0 62 -50 21 c-68 29 -100 33 -136 17z"
       id="path769" />
    <path
       d="M5715 3618 c-38 -20 -75 -61 -86 -95 -31 -96 89 -196 180 -148 41 21 91 90 91 126 0 35 -41 84 -91 109 -43 23 -65 24 -94 8z"
       id="path771" />
    <path
       d="M6838 3524 c-30 -16 -49 -66 -38 -99 4 -11 24 -29 44 -40 l37 -20 30 33 c33 37 37 66 12 102 -30 44 -42 48 -85 24z"
       id="path773" />
    <path
       d="M744 2759 c-16 -17 -16 -22 -4 -29 27 -17 40 -11 40 20 0 35 -10 38 -36 9z"
       id="path775" />
    <path
       d="M2254 2600 c-33 -13 -39 -42 -13 -63 28 -23 41 -10 37 35 -3 31 -5 35 -24 28z"
       id="path777" />
    <path
       d="M6786 2427 c-11 -8 -16 -22 -14 -38 3 -23 4 -23 22 9 20 38 17 48 -8 29z"
       id="path779" />
    <path
       d="M1360 1953 c-14 -9 -28 -21 -31 -26 -12 -17 12 -66 42 -88 29 -20 30 -20 61 -2 17 10 37 28 45 40 14 21 13 25 -20 58 -39 39 -61 43 -97 18z"
       id="path781" />
    <path
       d="M6110 1818 c-11 -18 -20 -37 -20 -42 0 -8 100 0 108 9 2 2 1 17 -3 34 -6 26 -11 31 -36 31 -22 0 -34 -8 -49 -32z"
       id="path783" />
    <path
       d="M4324 1830 c-12 -4 -24 -15 -27 -24 -8 -19 32 -116 47 -116 7 0 26 12 43 28 24 21 32 38 37 75 l6 47 -43 -1 c-23 0 -51 -4 -63 -9z"
       id="path785" />
    <path
       d="M1936 1143 c-14 -35 -7 -43 40 -43 50 0 50 8 0 38 -30 18 -35 18 -40 5z"
       id="path787" />
    <path
       d="M2796 944 c-3 -9 -6 -29 -6 -45 0 -29 0 -29 60 -29 l60 0 -15 37 c-9 21 -21 41 -28 45 -21 13 -65 9 -71 -8z"
       id="path789" />
    <path
       d="M4623 811 c-32 -14 -53 -52 -60 -108 -7 -66 11 -119 47 -138 42 -22 118 -19 158 5 76 47 83 181 11 224 -35 20 -124 30 -156 17z"
       id="path791" />
  </g>
  <path
     style="fill:#d400aa;stroke-width:0.716521"
     d="m 506.22208,464.40016 c -6.41476,-3.01301 -8.23999,-6.56633 -8.23999,-16.04144 0,-8.29418 1.63615,-11.82966 6.80695,-14.70875 4.77985,-2.66141 9.11495,-2.365 18.45041,1.26156 l 6.98608,2.71388 v 6.5984 c 0,11.01174 -2.66912,16.63593 -9.51378,20.04677 -4.76169,2.37284 -9.62118,2.4163 -14.48967,0.12958 z"
     id="path9051"
     transform="scale(0.75)" />
  <path
     style="fill:#d400aa;stroke-width:1.55978"
     d="m 759.24269,478.75058 c -9.59419,-5.20576 -11.06982,-16.9808 -3.06338,-24.4447 7.35388,-6.85556 9.91092,-7.52063 16.89425,-4.3941 13.91874,6.23161 16.08048,16.24772 5.63321,26.10076 -6.12991,5.78125 -12.2649,6.64427 -19.46408,2.73804 z"
     id="path9090"
     transform="scale(0.75)" />
  <path
     style="fill:#d400aa;stroke-width:1.55978"
     d="m 912.08156,477.90726 c -5.71196,-4.28036 -5.78964,-10.90632 -0.1796,-15.31918 5.44391,-4.28218 6.31247,-4.12179 9.94532,1.83652 3.92801,6.4424 3.92593,6.46347 -1.18693,12.02836 l -4.2894,4.66863 z"
     id="path9129"
     transform="scale(0.75)" />
  <path
     style="fill:#d400aa;stroke-width:1.55978"
     d="m 815.063,689.52313 c 3.47566,-5.30453 10.51319,-5.65727 9.77934,-0.49016 -0.40219,2.83187 -1.64744,3.60415 -6.44922,3.99966 l -5.9508,0.49016 z"
     id="path9205"
     transform="scale(0.75)" />
  <path
     style="fill:#d400aa;stroke-width:1.55978"
     d="m 576.25925,698.83169 c -2.49817,-5.97895 -2.8716,-9.64281 -1.09025,-10.69658 0.64341,-0.38061 4.25764,-1.20332 8.03162,-1.82825 l 6.86178,-1.13623 -0.95084,5.85931 c -0.8997,5.54422 -6.2531,13.21089 -9.22475,13.21089 -0.75212,0 -2.38452,-2.43411 -3.62756,-5.40914 z"
     id="path9281"
     transform="scale(0.75)" />
  <path
     style="fill:#d400aa;stroke-width:1.55978"
     d="m 373.07384,809.13605 c 0.38473,-3.3436 1.41968,-4.39632 4.69377,-4.77434 3.34799,-0.38654 4.70115,0.48378 6.66912,4.2894 l 2.46891,4.77434 h -7.16267 c -6.89362,0 -7.14414,-0.16112 -6.66913,-4.2894 z"
     id="path9359"
     transform="scale(0.75)" />
  <path
     style="fill:#d400aa;stroke-width:1.55978"
     d=""
     id="path9546"
     transform="scale(0.75)" />
  <path
     style="fill:#d400aa;stroke-width:1.55978"
     d="m 181.92711,682.97109 c -5.36115,-5.36115 -5.21251,-9.27674 0.46358,-12.21196 4.33795,-2.24324 4.8243,-2.15706 9.35869,1.65837 5.95674,5.01227 6.00821,7.34173 0.25276,11.43997 -5.6229,4.00386 -5.14253,4.04612 -10.07503,-0.88638 z"
     id="path9696"
     transform="scale(0.75)" />
  <path
     style="fill:#d400aa;stroke-width:1.55978"
     d="m 132.97127,444.27744 c -2.7798,-1.11193 -2.41124,-7.63449 0.60163,-10.64736 3.41364,-3.41364 5.6069,-0.97844 4.97122,5.51957 -0.50783,5.19118 -1.9945,6.55912 -5.57285,5.12779 z"
     id="path9994"
     transform="scale(0.75)" />
  <path
     style="fill:#d400aa;stroke-width:1.55978"
     d="m 306.49741,293.45849 c -3.01501,-4.60149 -1.69645,-8.24479 4.06149,-11.22234 4.11145,-2.12611 4.71234,-2.05997 7.60989,0.83758 3.9104,3.91041 4.01782,8.11257 0.29353,11.48301 -4.04929,3.66456 -9.15103,3.19627 -11.96491,-1.09825 z"
     id="path10107"
     transform="scale(0.75)" />
  <path
     style="fill:#d400aa;stroke-width:1.55978"
     d=""
     id="path10146"
     transform="scale(0.75)" />
  <path
     style="fill:#d400aa;stroke-width:1.55978"
     d="m 196.53232,210.59712 c 0,-1.11147 1.35166,-3.67788 3.00368,-5.70315 2.71062,-3.32303 3.10737,-3.41598 4.06633,-0.95269 0.58446,1.50129 0.69601,3.68507 0.24789,4.85285 -1.11212,2.89815 -7.3179,4.42713 -7.3179,1.80299 z"
     id="path10259"
     transform="scale(0.75)" />
  <path
     style="fill:#d400aa;stroke-width:1.55978"
     d="m 401.4131,89.608897 c -4.97989,-1.877098 -5.62886,-3.982329 -2.87141,-9.31465 3.49085,-6.750555 6.13164,-7.194672 13.55803,-2.280125 6.18594,4.093663 6.34322,4.390001 3.47087,6.5397 -6.28111,4.700852 -10.80854,6.317415 -14.15749,5.055075 z"
     id="path10298"
     transform="scale(0.75)" />
  <path
     style="fill:#d400aa;stroke-width:1.55978"
     d=""
     id="path10374"
     transform="scale(0.75)" />
  <path
     style="fill:#d400aa;stroke-width:1.55978"
     d=""
     id="path10413"
     transform="scale(0.75)" />
  <path
     style="fill:#d400aa;stroke-width:0.663347"
     d="m 524.82357,42.023151 c 0.84823,-1.514023 2.22097,-3.19693 3.05054,-3.739794 1.428,-0.934469 1.64876,-0.839385 4.14592,1.785679 3.99835,4.203142 3.67188,4.706883 -3.05054,4.706883 h -5.68815 z"
     id="path11469"
     transform="scale(0.75)" />
  <path
     style="fill:#d400aa;stroke-width:0.663347"
     d="m 290.05398,113.43233 c 0.14085,-4.07971 0.32196,-4.6666 1.49182,-4.8343 0.73233,-0.10498 1.91822,0.23815 2.63533,0.7625 1.17037,0.8558 1.21032,1.12809 0.39031,2.66029 -0.50243,0.93879 -1.76047,2.68521 -2.79564,3.88092 l -1.88214,2.17402 z"
     id="path11547"
     transform="scale(0.75)" />
  <path
     style="fill:#d400aa;stroke-width:0.663347"
     d="m 596.34891,210.73944 c 0,-5.23212 0.83931,-6.23588 4.99468,-5.97329 l 3.29237,0.20806 1.44771,3.64034 c 0.79624,2.00219 1.32336,3.76469 1.17137,3.91668 -0.29728,0.29728 -8.70401,1.99676 -10.07695,2.03713 -0.57098,0.0168 -0.82918,-1.17551 -0.82918,-3.82892 z"
     id="path11586"
     transform="scale(0.75)" />
  <path
     style="fill:#d400aa;stroke-width:0.663347"
     d="m 650.04527,82.457666 c -0.98694,-3.665181 -0.24406,-9.542378 1.41598,-11.202416 1.56132,-1.561323 4.40721,-1.638576 6.59716,-0.179085 2.67942,1.785694 7.27858,6.414638 7.27858,7.325714 0,0.978202 -5.31535,3.802775 -10.53665,5.599165 -1.98073,0.681471 -3.69235,1.239039 -3.80359,1.239039 -0.11124,0 -0.53941,-1.252087 -0.95148,-2.782417 z"
     id="path11625"
     transform="scale(0.75)" />
  <path
     style="fill:#d400aa;stroke-width:0.663347"
     d="m 778.90913,138.14463 c -1.2451,-1.50025 -2.7932,-6.42721 -2.7932,-8.8896 0,-1.76542 0.36251,-2.4177 1.67636,-3.01633 1.28071,-0.58353 1.86503,-0.57514 2.47574,0.0356 1.20272,1.20273 1.46399,10.09589 0.34066,11.59596 -0.78134,1.0434 -1.02826,1.08327 -1.69956,0.2744 z"
     id="path11664"
     transform="scale(0.75)" />
  <path
     style="fill:#d400aa;stroke-width:0.663347"
     d="m 837.30969,241.09224 c -4.47358,-5.10675 -5.7139,-7.26244 -4.17857,-7.26244 0.34688,0 2.14877,0.32557 4.00419,0.72349 4.44895,0.95412 5.44555,2.47491 5.18283,7.90888 l -0.19919,4.12001 z"
     id="path11703"
     transform="scale(0.75)" />
  <path
     style="fill:#d400aa;stroke-width:0.604776"
     d="m 123.05651,319.42987 c -0.70232,-4.6834 1.74061,-9.93833 3.97748,-8.55587 1.10437,0.68254 -1.76989,11.16916 -3.06133,11.16916 -0.28834,0 -0.70061,-1.17598 -0.91615,-2.61329 z"
     id="path11742"
     transform="scale(0.75)" />
  <path
     style="fill:#d400aa;stroke-width:0.604776"
     d="m 99.201229,566.5088 c -1.348954,-1.09232 -1.36126,-1.18419 -0.362743,-2.70812 0.568469,-0.86759 1.699944,-2.01406 2.514394,-2.54771 1.83096,-1.19969 2.2301,-0.50662 1.95076,3.38733 -0.15337,2.13799 -0.42844,2.67366 -1.44772,2.81933 -0.6921,0.0989 -1.886713,-0.32896 -2.654691,-0.95083 z"
     id="path11781"
     transform="scale(0.75)" />
  <path
     style="fill:#d400aa;stroke-width:0.604776"
     d="m 298.85168,591.85951 c -1.12504,-1.05094 -1.90672,-2.38224 -1.90672,-3.2474 0,-1.78736 2.22993,-4.00471 4.25568,-4.23169 1.33547,-0.14963 1.5477,0.13346 2.04998,2.73435 0.63266,3.27606 -0.0413,6.05387 -1.53876,6.34225 -0.52441,0.101 -1.81149,-0.61788 -2.86018,-1.59751 z"
     id="path11820"
     transform="scale(0.75)" />
  <path
     style="fill:#d400aa;stroke-width:0.604776"
     d="m 258.22932,782.56798 c -0.96539,-1.16324 -0.0582,-4.73824 1.26708,-4.99347 1.08434,-0.20883 8.41932,4.40396 8.41932,5.2947 0,1.05064 -8.79134,0.77725 -9.6864,-0.30123 z"
     id="path11859"
     transform="scale(0.75)" />
  <path
     style="fill:#d400aa;stroke-width:0.604776"
     d=""
     id="path11935"
     transform="scale(0.75)" />
  <ellipse
     style="fill:#e6007a;fill-opacity:1;stroke-width:0.94956"
     id="path12542"
     cx="302.52454"
     cy="64.472244"
     rx="13.528055"
     ry="13.891168" />
  <ellipse
     style="fill:#e6007a;fill-opacity:1;stroke-width:1.06858"
     id="path12544"
     cx="392.72479"
     cy="33.727337"
     rx="11.196367"
     ry="9.9314156" />
  <ellipse
     style="fill:#e6007a;fill-opacity:1;stroke-width:0.93316"
     id="path12546"
     cx="488.58731"
     cy="59.666878"
     rx="12.57077"
     ry="11.072262" />
  <ellipse
     style="fill:#e6007a;fill-opacity:1;stroke-width:0.998854"
     id="path12550"
     cx="584.57501"
     cy="96.913414"
     rx="8.3479719"
     ry="8.0903921" />
  <ellipse
     style="fill:#e6007a;fill-opacity:1;stroke-width:1.01412"
     id="path12552"
     cx="217.17978"
     cy="86.843781"
     rx="9.0828152"
     ry="8.9685078" />
  <ellipse
     style="fill:#e6007a;fill-opacity:1;stroke-width:0.983"
     id="path12554"
     cx="149.61476"
     cy="153.85835"
     rx="11.086115"
     ry="10.589773" />
  <ellipse
     style="fill:#e6007a;fill-opacity:1;stroke-width:0.931056"
     id="path12556"
     cx="452.33093"
     cy="159.40314"
     rx="10.228683"
     ry="10.535895" />
  <ellipse
     style="fill:#e6007a;fill-opacity:1;stroke-width:1.13676"
     id="path12558"
     cx="627.29736"
     cy="180.71336"
     rx="12.247083"
     ry="10.329057" />
  <ellipse
     style="fill:#e6007a;stroke-width:0.75;fill-opacity:1"
     id="path12560"
     cx="235.72247"
     cy="217.70673"
     rx="10.539742"
     ry="10.094961" />
  <ellipse
     style="fill:#e6007a;stroke-width:0.75;fill-opacity:1"
     id="path12564"
     cx="94.171341"
     cy="238.14746"
     rx="7.1577029"
     ry="6.9367342" />
  <ellipse
     style="fill:#e6007a;fill-opacity:1;stroke-width:0.868332"
     id="path12568"
     cx="102.42461"
     cy="332.95007"
     rx="10.110546"
     ry="10.715611" />
  <ellipse
     style="fill:#e6007a;fill-opacity:1;stroke-width:0.913911"
     id="path12572"
     cx="74.75248"
     cy="427.34286"
     rx="7.7820673"
     ry="7.6686945" />
  <ellipse
     style="fill:#e6007a;stroke-width:0.75;fill-opacity:1"
     id="path12574"
     cx="226.11139"
     cy="442.8056"
     rx="6.9836273"
     ry="7.2728062" />
  <ellipse
     style="fill:#e6007a;fill-opacity:1;stroke-width:0.844486"
     id="path12576"
     cx="140.2932"
     cy="511.73203"
     rx="12.319205"
     ry="11.642076" />
  <ellipse
     style="fill:#e6007a;fill-opacity:1;stroke-width:1.08381"
     id="path12578"
     cx="193.81488"
     cy="588.20819"
     rx="8.6457119"
     ry="9.1043024" />
  <ellipse
     style="fill:#e6007a;fill-opacity:1;stroke-width:1.07318"
     id="path12582"
     cx="287.13785"
     cy="609.05615"
     rx="10.819393"
     ry="10.337517" />
  <ellipse
     style="fill:#e6007a;stroke-width:0.75;fill-opacity:1"
     id="path12584"
     cx="437.98834"
     cy="522.41144"
     rx="12.25634"
     ry="10.526954" />
  <ellipse
     style="fill:#e6007a;fill-opacity:1;stroke-width:0.662247"
     id="path12586"
     cx="612.32825"
     cy="519.26526"
     rx="8.0259657"
     ry="7.2188072" />
  <ellipse
     style="fill:#e6007a;fill-opacity:1;stroke-width:0.73819"
     id="path12588"
     cx="466.71844"
     cy="629.11499"
     rx="17.882038"
     ry="17.300638" />
  <ellipse
     style="fill:#e6007a;fill-opacity:1;stroke-width:0.897202"
     id="path12590"
     cx="679.05231"
     cy="456.79404"
     rx="8.229475"
     ry="8.4100485" />
  <ellipse
     style="fill:#e6007a;fill-opacity:1;stroke-width:0.828657"
     id="path12592"
     cx="682.4754"
     cy="350.83191"
     rx="12.871244"
     ry="12.096565" />
  <ellipse
     style="fill:#e6007a;fill-opacity:1;stroke-width:0.772246"
     id="path12594"
     cx="576.5213"
     cy="349.98392"
     rx="17.596701"
     ry="16.251839" />
  <ellipse
     style="fill:#e6007a;fill-opacity:1;stroke-width:0.903827"
     id="path12598"
     cx="388.38583"
     cy="340.85507"
     rx="21.289616"
     ry="21.155764" />
  <path
     style="fill:none;stroke:#e6007a;stroke-width:0.75px;stroke-linecap:butt;stroke-linejoin:miter;stroke-opacity:1"
     d="M 391.9,34 313.7,62.3 217.42026,88.55682 152.50001,150 301.05983,67.206673 487.53396,61.843249 Z"
     id="path19084" />
  <path
     style="fill:none;stroke:#e6007a;stroke-width:0.75px;stroke-linecap:butt;stroke-linejoin:miter;stroke-opacity:1"
     d="M 500.55509,60.892038 582.3,94.8 627.98227,180.81918 455.7,159.6 487.53395,61.843249"
     id="path19839" />
  <path
     style="fill:none;stroke:#e6007a;stroke-width:0.75px;stroke-linecap:butt;stroke-linejoin:miter;stroke-opacity:1"
     d="M 487.53395,61.843249 627.98227,180.81918"
     id="path20594" />
  <path
     style="fill:none;stroke:#e6007a;stroke-width:0.75px;stroke-linecap:butt;stroke-linejoin:miter;stroke-opacity:1"
     d="M 455.7,159.6 301.05982,67.206673 230.6,212.1 147.39924,157.94784 92.292383,239.5724 l 7.43607,93.63568 47.670787,-175.26024"
     id="path21427" />
  <path
     style="fill:none;stroke:#e6007a;stroke-width:0.75px;stroke-linecap:butt;stroke-linejoin:miter;stroke-opacity:1"
     d="M 447,161.3 229.87306,220.09387 99.728453,333.20808 74.4,422.1 92.292383,239.5724"
     id="path22283" />
  <path
     style="fill:none;stroke:#e6007a;stroke-width:0.75px;stroke-linecap:butt;stroke-linejoin:miter;stroke-opacity:1"
     d="m 74.400922,424.88159 62.044408,87.34672 -36.716877,-179.02024 124.410307,110.68655 -87.69343,68.33369 57.22666,74.69767 86.13339,19.92605 -143.36005,-94.62372"
     id="path23215" />
  <path
     style="fill:none;stroke:#e6007a;stroke-width:0.75px;stroke-linecap:butt;stroke-linejoin:miter;stroke-opacity:1"
     d="M 290.17923,610.06909 224.13876,443.89463 379.66656,348.30012 229.87306,220.09387"
     id="path23991" />
  <path
     style="fill:none;stroke:#e6007a;stroke-width:0.75px;stroke-linecap:butt;stroke-linejoin:miter;stroke-opacity:1"
     d="m 397.66915,328.21906 34.52529,195.90471 c 0,0 22.019,128.99518 30.25094,117.04099 8.23194,-11.95419 -172.26615,-31.09567 -172.26615,-31.09567 L 432.19444,524.12377 224.13876,443.89463"
     id="path24845" />
  <path
     style="fill:none;stroke:#e6007a;stroke-width:0.75px;stroke-linecap:butt;stroke-linejoin:miter;stroke-opacity:1"
     d="m 387.33407,338.00001 16.32052,-48.33305 3.37029,-9.98107 L 447,161.3 576.30024,348.75029 627.98227,180.81918 684.06117,358.43045 678.6,455.3 c 0,0 -71.23377,67.84184 -69.26826,64.84209 C 611.29725,517.14235 683.8,345.6 683.8,345.6 L 569.43202,359.06294 379.66656,348.30012"
     id="path26089"
     sodipodi:nodetypes="ccccccccsccc" />
  <path
     style="fill:none;stroke:#e6007a;stroke-width:0.75px;stroke-linecap:butt;stroke-linejoin:miter;stroke-opacity:1"
     d="m 576.30024,348.75029 34.99701,168.39206 -179.10281,6.98142 144.1058,-175.37348"
     id="path26787" />
  <path
     style="fill:#d45500;stroke:#e6007a;stroke-width:0.75px;stroke-linecap:butt;stroke-linejoin:miter;stroke-opacity:1"
     d="M 472.81927,631.17383 609.33174,520.14209"
     id="path27485" />
  <text
     xml:space="preserve"
     style="font-style:normal;font-weight:normal;font-size:30px;line-height:1.25;font-family:sans-serif;fill:#000000;fill-opacity:1;stroke:none;stroke-width:0.75"
     x="186.66275"
     y="285.2467"
     id="text19128"><tspan
       sodipodi:role="line"
       id="tspan19126"
       style="stroke-width:0.75"></tspan></text>
</svg>
